<svg width="98" height="32" viewBox="0 0 98 32" fill="none" xmlns="http://www.w3.org/2000/svg">
<path d="M44.0407 10.0486L52.2435 19.5294H57.7216V0H51.9597V9.62278L43.7568 0H38.2788V19.5294H44.0407V10.0486Z" fill="white"/>
<path d="M75.1493 0H59.368V19.5294H65.6408V12.9887H73.8153V8.03317H65.6408V4.99589H75.1493V0Z" fill="white"/>
<path d="M89.5395 4.99589V19.5294H83.2668V4.99589H76.7645V0H96.0522V4.99589H89.5395Z" fill="white"/>
<path fill-rule="evenodd" clip-rule="evenodd" d="M86.2769 23.0849C85.3622 22.214 84.0656 21.7785 82.3871 21.7785C80.7086 21.7785 79.412 22.214 78.4973 23.0849C77.5921 23.9463 77.1395 25.2144 77.1395 26.8893C77.1395 28.5641 77.5921 29.837 78.4973 30.708C79.412 31.5693 80.7086 32 82.3871 32C84.0656 32 85.3622 31.5645 86.2769 30.6936C87.1916 29.8227 87.649 28.5546 87.649 26.8893C87.649 25.224 87.1916 23.9559 86.2769 23.0849ZM80.8595 24.7646C81.2084 24.3531 81.7176 24.1473 82.3871 24.1473C83.0567 24.1473 83.5659 24.3531 83.9148 24.7646C84.2731 25.1761 84.4523 25.7312 84.4523 26.4299V27.3487C84.4523 28.0473 84.2731 28.6024 83.9148 29.014C83.5659 29.4255 83.0567 29.6313 82.3871 29.6313C81.7176 29.6313 81.2084 29.4255 80.8595 29.014C80.5106 28.6024 80.3362 28.0473 80.3362 27.3487V26.4299C80.3362 25.7312 80.5106 25.1761 80.8595 24.7646Z" fill="white"/>
<path d="M44.8419 31.8277V28.0808H41.4048V31.8277H38.2788V21.9508H41.4048V25.5542H44.8419V21.9508H47.9679V31.8277H44.8419Z" fill="white"/>
<path d="M50.2029 31.8277V21.9508H53.3289V31.8277H50.2029Z" fill="white"/>
<path fill-rule="evenodd" clip-rule="evenodd" d="M62.6314 22.3815C62.1599 22.0944 61.6224 21.9508 61.0189 21.9508H55.5591V31.8277H58.6851V28.6407H61.0189C61.6224 28.6407 62.1599 28.5019 62.6314 28.2244C63.1029 27.9373 63.4707 27.5449 63.7347 27.0472C63.9988 26.5495 64.1308 25.9944 64.1308 25.3819V25.1953C64.1308 24.5827 63.9988 24.0324 63.7347 23.5443C63.4707 23.0467 63.1029 22.659 62.6314 22.3815ZM59.9722 26.3294H58.6851V24.2908H59.9722C60.3023 24.2908 60.5474 24.377 60.7078 24.5492C60.8775 24.7119 60.9624 24.9464 60.9624 25.2527V25.3675C60.9624 25.6642 60.8775 25.8987 60.7078 26.071C60.5474 26.2433 60.3023 26.3294 59.9722 26.3294Z" fill="white"/>
<path d="M72.3302 31.8277V28.0808H68.893V31.8277H65.767V21.9508H68.893V25.5542H72.3302V21.9508H75.4561V31.8277H72.3302Z" fill="white"/>
<path fill-rule="evenodd" clip-rule="evenodd" d="M94.7921 21.9508C95.3956 21.9508 95.9331 22.0944 96.4046 22.3815C96.8761 22.659 97.2439 23.0467 97.5079 23.5443C97.772 24.0324 97.904 24.5827 97.904 25.1953V25.3819C97.904 25.9944 97.772 26.5495 97.5079 27.0472C97.2439 27.5449 96.8761 27.9373 96.4046 28.2244C95.9331 28.5019 95.3956 28.6407 94.7921 28.6407H92.4583V31.8277H89.3323V21.9508H94.7921ZM92.4583 26.3294H93.7454C94.0755 26.3294 94.3207 26.2433 94.481 26.071C94.6507 25.8987 94.7356 25.6642 94.7356 25.3675V25.2527C94.7356 24.9464 94.6507 24.7119 94.481 24.5492C94.3207 24.377 94.0755 24.2908 93.7454 24.2908H92.4583V26.3294Z" fill="white"/>
<path d="M97.5728 13.1765H91.2199V19.5294H97.5728V13.1765Z" fill="white"/>
<path d="M31.9259 0H0.0961914V29.5936C0.268803 29.4678 0.442483 29.3433 0.615968 29.219C0.682151 29.1716 0.748333 29.1241 0.814418 29.0767C1.37211 28.6205 2.04582 28.3433 2.70696 28.0713L2.71473 28.0681C3.23969 27.8578 3.77374 27.6716 4.30777 27.4854C4.63304 27.3721 4.95832 27.2587 5.28156 27.1398C5.41775 27.0885 5.55727 27.0453 5.69682 27.002C5.96893 26.9177 6.24107 26.8333 6.48845 26.6893C6.68865 26.5823 6.86789 26.445 7.04734 26.3075C7.16173 26.2199 7.27619 26.1322 7.39622 26.0522C7.50644 25.9756 7.63119 25.9293 7.75614 25.8828C7.83259 25.8544 7.90913 25.826 7.98247 25.7905C8.11548 25.7296 8.23897 25.6523 8.3625 25.5749C8.45345 25.518 8.54444 25.461 8.63921 25.4106C8.87188 25.2866 9.1166 25.187 9.36187 25.0898C9.34928 23.9424 9.41115 22.7968 9.51431 21.6546C9.51703 21.6026 9.52118 21.5503 9.52532 21.4979C9.53957 21.3177 9.55391 21.1362 9.51088 20.9595C9.27762 20.1899 9.14296 19.3952 9.03064 18.6006C9.00577 18.6132 8.98061 18.6262 8.95519 18.6393C8.73537 18.7532 8.49626 18.877 8.2461 18.7929C7.90567 18.6723 7.68734 18.3406 7.57042 18.017C7.5281 17.7062 7.46415 17.399 7.4002 17.0919C7.33081 16.7588 7.26143 16.4258 7.21969 16.0881C7.17271 15.3537 7.15322 14.5671 7.53088 13.9055C7.65982 13.6797 7.8753 13.4294 8.16586 13.4675C8.35612 13.5121 8.51604 13.6204 8.67606 13.7288C8.77339 13.7947 8.87078 13.8607 8.97504 13.9123C9.00655 13.5363 9.01516 13.1569 8.99052 12.7804C8.98573 12.6658 8.92508 12.5701 8.86531 12.4758C8.84618 12.4456 8.8271 12.4156 8.81001 12.385C8.56014 11.98 8.50283 11.4823 8.57617 11.0199C8.58051 10.9881 8.58591 10.956 8.59135 10.9235C8.61758 10.7675 8.64478 10.6058 8.55842 10.4636C8.37331 10.108 8.21055 9.72123 8.23175 9.31281C8.24263 8.94763 8.42661 8.59609 8.71543 8.37141C8.97676 8.15525 9.30456 8.04889 9.6232 7.9465C9.64606 7.88121 9.66873 7.81584 9.69139 7.75045C9.81301 7.39944 9.93472 7.04823 10.0874 6.70874C10.4799 5.82762 11.0112 5.00568 11.653 4.28326C12.0605 3.88907 12.5837 3.57792 13.1585 3.51706C13.9763 3.3868 14.7969 3.26905 15.6222 3.19681C16.5007 3.17121 17.3804 3.17064 18.2595 3.17064C18.8671 3.33221 19.414 3.65177 19.954 3.96727C20.0053 3.99722 20.0565 4.02713 20.1077 4.05687C21.1913 4.70078 22.2687 5.3555 23.3278 6.03866C23.6951 6.2952 24.0498 6.58132 24.3278 6.93399C24.5008 7.17802 24.6418 7.44593 24.7398 7.72807C24.7496 7.77235 24.7595 7.81667 24.7695 7.86102C24.8475 8.20751 24.926 8.55661 24.9077 8.91464L24.904 9.11309C24.8864 10.0664 24.8688 11.0239 24.7198 11.9675C24.7919 12.0312 24.8659 12.0938 24.9402 12.1565C25.2354 12.4059 25.5339 12.658 25.7267 12.9948C25.9072 13.3822 25.8911 13.8811 25.6269 14.228C25.455 14.4777 25.2012 14.6564 24.9461 14.8134C24.8548 14.8708 24.756 14.9155 24.6573 14.9601C24.5019 15.0303 24.3468 15.1004 24.2218 15.2201L24.1794 15.259C23.9007 15.5147 23.6185 15.7737 23.3948 16.0801C23.6149 16.2184 23.7604 16.4493 23.7965 16.7047C23.8527 17.0978 23.8745 17.5215 23.6985 17.8896C23.4017 18.5659 23.0642 19.2235 22.7152 19.8742C22.6676 19.9563 22.6446 20.0471 22.6216 20.1379C22.5969 20.2351 22.5723 20.3323 22.5174 20.4186C22.4223 20.5824 22.3094 20.7439 22.1489 20.8514C22.017 20.9389 21.8574 20.9521 21.7024 20.9649C21.6749 20.9671 21.6476 20.9694 21.6206 20.972C21.2962 21.7462 20.8899 22.4834 20.4475 23.1973C20.4395 23.2126 20.4301 23.2277 20.4206 23.243C20.3916 23.2893 20.3621 23.3367 20.3724 23.3941C20.3839 23.7627 20.3919 24.1319 20.4137 24.5005C20.416 24.6398 20.4784 24.7803 20.6085 24.8469C21.0154 25.0841 21.412 25.3389 21.8057 25.5971C22.0677 25.7759 22.3762 25.8452 22.6823 25.914C22.7765 25.9352 22.8704 25.9563 22.9627 25.9805C23.0275 25.9976 23.0932 26.0137 23.159 26.0298C23.4722 26.1065 23.7905 26.1844 24.051 26.3804C24.4481 26.6671 24.8338 26.9686 25.2189 27.2706C25.6256 27.5903 26.0872 27.8231 26.5484 28.0557C26.7274 28.146 26.9064 28.2362 27.082 28.3315C28.0132 28.7962 28.9032 29.3372 29.7623 29.9225C29.8454 29.9799 29.9296 30.0364 30.0139 30.0929C30.3278 30.3035 30.6429 30.515 30.9136 30.7791C31.2359 31.1238 31.58 31.4468 31.9259 31.7679V0Z" fill="#ED1C25"/>
</svg>
