<svg width="121" height="32" viewBox="0 0 121 32" fill="none" xmlns="http://www.w3.org/2000/svg">
<path d="M60.5002 6.31846V24.817C60.4993 24.8868 60.472 24.9535 60.4241 25.0028C60.3763 25.0522 60.3116 25.0803 60.2439 25.0812H58.3786C57.9504 25.0816 57.529 24.9711 57.153 24.76C56.777 24.5488 56.4583 24.2437 56.2262 23.8727L47.7603 10.3776L48.0507 17.1181V24.817C48.0498 24.8868 48.0226 24.9535 47.9747 25.0028C47.9268 25.0522 47.8622 25.0803 47.7945 25.0812H45.3278C45.2601 25.0803 45.1955 25.0522 45.1476 25.0028C45.0998 24.9535 45.0725 24.8868 45.0716 24.817V6.31846C45.0725 6.24866 45.0998 6.18197 45.1476 6.13261C45.1955 6.08325 45.2601 6.05511 45.3278 6.0542H47.1829C47.6106 6.05443 48.0314 6.16477 48.4073 6.3752C48.7832 6.58563 49.1021 6.8895 49.3353 7.25924L57.8012 20.7332L57.5381 14.0174V6.31846C57.5381 6.24838 57.5651 6.18116 57.6132 6.1316C57.6612 6.08204 57.7264 6.0542 57.7944 6.0542H60.261C60.3257 6.05948 60.3861 6.08953 60.4303 6.13844C60.4746 6.18734 60.4995 6.25157 60.5002 6.31846Z" fill="white"/>
<path d="M86.5321 25.0812H83.8989C83.8578 25.0808 83.8173 25.0704 83.7809 25.0507C83.7445 25.0311 83.7132 25.0029 83.6896 24.9685C83.666 24.934 83.6508 24.8943 83.6452 24.8526C83.6397 24.8109 83.644 24.7685 83.6577 24.7288L90.6335 6.30814C90.6634 6.23101 90.7158 6.16522 90.7837 6.11979C90.8516 6.07437 90.9316 6.05154 91.0127 6.05445H94.311C94.3892 6.05513 94.4654 6.07964 94.5298 6.12483C94.5943 6.17002 94.6441 6.23385 94.6729 6.30814L101.628 24.7288C101.642 24.7685 101.646 24.8109 101.641 24.8526C101.635 24.8943 101.62 24.934 101.596 24.9685C101.573 25.0029 101.541 25.0311 101.505 25.0507C101.468 25.0704 101.428 25.0808 101.387 25.0812H98.7537C98.701 25.0814 98.6494 25.0654 98.6058 25.0352C98.5621 25.0051 98.5284 24.9621 98.509 24.9121L92.8876 9.76113C92.8695 9.71012 92.8364 9.66604 92.793 9.63489C92.7495 9.60375 92.6977 9.58703 92.6446 9.58703C92.5915 9.58703 92.5397 9.60375 92.4962 9.63489C92.4528 9.66604 92.4197 9.71012 92.4016 9.76113L86.7803 24.9121C86.7606 24.9627 86.7264 25.006 86.682 25.0363C86.6377 25.0665 86.5854 25.0821 86.5321 25.0812Z" fill="white"/>
<path d="M120.445 24.6308L115.23 17.8075C118.174 17.2375 119.896 15.2035 119.896 12.0822C119.896 8.49636 117.618 6.0542 113.587 6.0542H106.313C106.211 6.0542 106.113 6.09572 106.041 6.16964C105.969 6.24355 105.929 6.34379 105.929 6.44832C105.929 6.78105 105.993 7.11051 106.117 7.41791C106.241 7.72531 106.423 8.00461 106.653 8.23989C106.883 8.47516 107.156 8.66179 107.456 8.78911C107.756 8.91644 108.078 8.98198 108.402 8.98198H113.285C115.721 8.98198 116.889 10.2594 116.889 12.1033C116.889 13.9472 115.749 15.2704 113.285 15.2704H106.313C106.211 15.2713 106.113 15.3136 106.041 15.3881C105.969 15.4625 105.929 15.5631 105.929 15.668V24.8173C105.929 24.8873 105.956 24.9544 106.004 25.0039C106.052 25.0534 106.118 25.0812 106.186 25.0812H108.667C108.735 25.0803 108.8 25.0522 108.848 25.0029C108.896 24.9536 108.924 24.887 108.925 24.8173V17.9729H111.787L116.312 24.022C116.554 24.3457 116.867 24.6076 117.224 24.787C117.582 24.9665 117.975 25.0588 118.374 25.0566H120.257C120.303 25.0539 120.349 25.0381 120.388 25.0109C120.427 24.9837 120.457 24.9462 120.477 24.9023C120.496 24.8584 120.504 24.8099 120.498 24.7621C120.493 24.7142 120.474 24.6688 120.445 24.6308Z" fill="white"/>
<path d="M78.2447 6.0542H66.8405C66.7502 6.0542 66.6636 6.09135 66.5998 6.15748C66.5359 6.2236 66.5001 6.31329 66.5001 6.40681C66.5001 7.09231 66.763 7.74972 67.2309 8.23444C67.6989 8.71916 68.3336 8.99147 68.9954 8.99147H78.2447C78.2784 8.99195 78.3118 8.98543 78.343 8.97231C78.3741 8.95918 78.4025 8.93972 78.4263 8.91507C78.4501 8.89042 78.4689 8.86107 78.4815 8.82877C78.4942 8.79647 78.5005 8.76187 78.5 8.72701V6.31866C78.5 6.24852 78.4731 6.18125 78.4252 6.13166C78.3774 6.08206 78.3124 6.0542 78.2447 6.0542ZM78.2447 22.1581H69.7341C69.6667 22.1571 69.6022 22.129 69.5545 22.0796C69.5069 22.0302 69.4797 21.9635 69.4788 21.8936V17.1192C69.4788 17.0491 69.5057 16.9818 69.5536 16.9322C69.6014 16.8826 69.6664 16.8548 69.7341 16.8548H77.6013C77.669 16.8548 77.734 16.8269 77.7819 16.7773C77.8297 16.7277 77.8566 16.6604 77.8566 16.5903V14.1643C77.8566 14.0942 77.8297 14.0269 77.7819 13.9773C77.734 13.9277 77.669 13.8999 77.6013 13.8999H66.8813C66.7799 13.9008 66.6829 13.9432 66.6115 14.0178C66.5401 14.0924 66.5001 14.1932 66.5001 14.2983V24.6828C66.4996 24.7349 66.5092 24.7867 66.5281 24.835C66.5471 24.8833 66.5751 24.9273 66.6105 24.9643C66.646 25.0014 66.6882 25.0308 66.7347 25.0508C66.7811 25.0709 66.831 25.0812 66.8813 25.0812H78.2447C78.3124 25.0812 78.3774 25.0534 78.4252 25.0038C78.4731 24.9542 78.5 24.8869 78.5 24.8168V22.4084C78.4974 22.3404 78.4692 22.2762 78.4215 22.2295C78.3738 22.1827 78.3104 22.1571 78.2447 22.1581Z" fill="white"/>
<path d="M25.9391 1.62495L19.3117 11.5556C19.2043 11.6989 19.1547 11.878 19.1727 12.0568C19.1908 12.2356 19.2753 12.4009 19.4091 12.5193C19.543 12.6378 19.7163 12.7007 19.8942 12.6954C20.0721 12.6901 20.2415 12.617 20.3681 12.4907L26.8899 6.80183C26.9275 6.76701 26.9744 6.74411 27.0248 6.73595C27.0751 6.7278 27.1268 6.73475 27.1733 6.75596C27.2198 6.77716 27.2591 6.81167 27.2863 6.85522C27.3136 6.89877 27.3276 6.94944 27.3266 7.00094V24.8818C27.326 24.9361 27.3091 24.9889 27.278 25.0332C27.247 25.0775 27.2032 25.1112 27.1527 25.1298C27.1022 25.1483 27.0472 25.1509 26.9952 25.137C26.9432 25.1232 26.8967 25.0937 26.8617 25.0525L7.14154 1.23029C6.82672 0.847843 6.43286 0.539557 5.98757 0.327042C5.54228 0.114527 5.05635 0.00292765 4.56383 6.6742e-05H3.87714C2.98149 6.6742e-05 2.12251 0.359309 1.48919 0.998765C0.85586 1.63822 0.500061 2.50551 0.500061 3.40984V28.5902C0.500061 29.4946 0.85586 30.3618 1.48919 31.0013C2.12251 31.6408 2.98149 32 3.87714 32C4.45425 31.9999 5.0217 31.8505 5.52536 31.5661C6.02902 31.2816 6.45209 30.8716 6.75418 30.3751L13.3816 20.4445C13.489 20.3011 13.5386 20.1221 13.5205 19.9433C13.5025 19.7645 13.418 19.5992 13.2842 19.4807C13.1503 19.3622 12.977 19.2993 12.7991 19.3046C12.6211 19.31 12.4518 19.3831 12.3251 19.5094L5.80338 25.1982C5.76578 25.2331 5.71889 25.256 5.66851 25.2641C5.61814 25.2723 5.5665 25.2653 5.52 25.2441C5.47351 25.2229 5.4342 25.1884 5.40695 25.1448C5.3797 25.1013 5.36571 25.0506 5.36672 24.9991V7.13605C5.36725 7.08176 5.38418 7.02893 5.41525 6.98462C5.44631 6.94031 5.49003 6.90662 5.54056 6.88807C5.59109 6.86952 5.64603 6.86698 5.69803 6.88079C5.75003 6.89461 5.79661 6.92412 5.83155 6.96538L25.5517 30.7876C25.869 31.1666 26.2643 31.4711 26.7101 31.6799C27.1559 31.8887 27.6415 31.9967 28.133 31.9964H28.8373C29.2807 31.9964 29.7199 31.9082 30.1296 31.7369C30.5393 31.5655 30.9116 31.3144 31.2252 30.9977C31.5388 30.6811 31.7876 30.3052 31.9573 29.8915C32.127 29.4778 32.2143 29.0345 32.2143 28.5867V3.40984C32.2144 2.96026 32.1263 2.51512 31.9553 2.10003C31.7842 1.68494 31.5336 1.3081 31.2178 0.991191C30.9019 0.674285 30.5271 0.423569 30.115 0.253472C29.7028 0.0833747 29.2614 -0.00274605 28.8161 6.6742e-05C28.239 0.000136647 27.6716 0.149528 27.1679 0.433985C26.6643 0.718442 26.2412 1.12847 25.9391 1.62495Z" fill="white"/>
</svg>
