<svg width="20" height="22" viewBox="0 0 20 22" fill="none" xmlns="http://www.w3.org/2000/svg">
<path d="M15 2.01381V3.63881L10.3887 9.05092C10.2606 9.0259 10.1305 9.01347 10 9.01381C9.46957 9.01381 8.96086 9.22452 8.58578 9.59959C8.21071 9.97467 8 10.4834 8 11.0138C8 11.5442 8.21071 12.053 8.58578 12.428C8.96086 12.8031 9.46957 13.0138 10 13.0138C10.5304 13.0138 11.0391 12.8031 11.4142 12.428C11.7893 12.053 12 11.5442 12 11.0138C11.9996 10.7952 11.9633 10.5781 11.8926 10.3712L16.4531 5.01381H18L20 3.01381H17V0C17 0 15 2 15 2.01381ZM10 1.01576C4.486 1.01576 0 5.50176 0 11.0158C0 16.5298 4.486 21.0158 10 21.0158C15.514 21.0158 20 16.5298 20 11.0158C20.001 9.11176 19.4563 7.3374 18.5293 5.8224L17.1348 7.41615C17.6838 8.49915 18 9.71881 18 11.0138C18 15.4248 14.411 19.0138 10 19.0138C5.589 19.0138 2 15.4248 2 11.0138C2 6.60281 5.589 3.01381 10 3.01381C10.919 3.01381 11.7971 3.17603 12.6191 3.46303L14.0195 1.86537C12.7875 1.32237 11.43 1.01576 10 1.01576ZM10 5.01381C6.691 5.01381 4 7.70481 4 11.0138C4 14.3228 6.691 17.0138 10 17.0138C13.309 17.0138 16 14.3228 16 11.0138C16 10.3378 15.8828 9.69012 15.6758 9.08412L14 11.0001C13.999 11.0041 14 11.0088 14 11.0138C14 13.2198 12.206 15.0138 10 15.0138C7.794 15.0138 6 13.2198 6 11.0138C6 8.99081 7.5148 7.3325 9.4668 7.0685L11.1621 5.12904C10.7861 5.05504 10.398 5.01381 10 5.01381Z" fill="white"/>
</svg>
