<svg width="20" height="21" viewBox="0 0 20 21" fill="none" xmlns="http://www.w3.org/2000/svg">
<path d="M15 3.63879V2.01379C15 2 17 0 17 0V3.01379H20L18 5.01379H16.4531L11.8926 10.3712C11.9409 10.5131 11.9731 10.6597 11.9888 10.8082C11.9961 10.8765 12 10.9451 12 11.0138C12 11.5442 11.7891 12.053 11.4141 12.428C11.0391 12.8031 10.5303 13.0138 10 13.0138C9.46973 13.0138 8.96094 12.8031 8.58594 12.428C8.21094 12.053 8 11.5442 8 11.0138C8 10.4834 8.21094 9.97461 8.58594 9.59961C8.81104 9.37439 9.08447 9.2085 9.38184 9.11182C9.57959 9.04749 9.78809 9.01379 10 9.01379C10.1304 9.01343 10.2607 9.02588 10.3887 9.0509L15 3.63879Z" fill="white"/>
<path d="M20 11C20 16.5228 15.5229 21 10 21C4.47705 21 0 16.5228 0 11C0 5.47717 4.47705 1 10 1C11.438 1 12.8052 1.30359 14.041 1.8501L9.49805 7.03113C7.52588 7.27795 6 8.96082 6 11C6 13.2091 7.79102 15 10 15C12.209 15 14 13.2091 14 11V10.9943L18.5479 5.80737C19.4692 7.32092 20 9.09851 20 11Z" fill="white"/>
</svg>
