<svg width="25" height="22" viewBox="0 0 25 22" fill="none" xmlns="http://www.w3.org/2000/svg">
<path opacity="0.5" d="M8.04909 21.9997C9.89179 22.0128 11.7185 21.613 13.4231 20.8235C15.1278 20.0341 16.6766 18.8707 17.9796 17.4008C19.2826 15.9309 20.3139 14.1838 21.0137 12.2608C21.7136 10.3378 22.068 8.27716 22.0564 6.19846V5.47239C23.0116 4.68293 23.8383 3.7128 24.5 2.60503C23.6006 3.04879 22.6488 3.3431 21.6745 3.47877C22.7075 2.78443 23.4826 1.6915 23.8564 0.402209C22.8937 1.05375 21.838 1.51178 20.7364 1.7559C19.9945 0.864145 19.0127 0.273062 17.9431 0.0741075C16.8734 -0.124847 15.7754 0.0794159 14.819 0.655293C13.8626 1.23117 13.1011 2.14656 12.6523 3.25982C12.2035 4.37308 12.0925 5.62215 12.3364 6.81377C10.3793 6.70541 8.46441 6.13326 6.71639 5.13459C4.96837 4.13592 3.4264 2.73311 2.19091 1.01752C1.56792 2.23729 1.37908 3.67853 1.66265 5.04945C1.94621 6.42036 2.68098 7.6185 3.71818 8.40128C2.95303 8.36799 2.20558 8.1319 1.53636 7.71213V7.77366C1.52956 9.04838 1.91024 10.2872 2.61495 11.2837C3.31966 12.2802 4.30582 12.9742 5.40909 13.2499C4.69742 13.4659 3.95196 13.4995 3.22727 13.3484C3.54667 14.4355 4.15638 15.3845 4.97278 16.0653C5.78917 16.7461 6.77228 17.1254 7.78727 17.151C6.05187 18.7269 3.89501 19.5943 1.66727 19.6123C1.27668 19.5995 0.886997 19.5625 0.5 19.5015C2.75486 21.1221 5.3755 21.9765 8.04909 21.9628" fill="white"/>
</svg>
