<svg width="29" height="20" viewBox="0 0 29 20" fill="none" xmlns="http://www.w3.org/2000/svg">
<path opacity="0.5" d="M24.6196 2.2179C22.1967 0.333766 18.3638 0.0143818 18.1997 0.00289273C17.9453 -0.0177867 17.7028 0.120077 17.5982 0.347552C17.5887 0.361338 17.5054 0.547454 17.4127 0.836967C19.0153 1.09891 20.984 1.62509 22.7649 2.69353C23.0503 2.86356 23.1382 3.2266 22.9623 3.50233C22.8458 3.68385 22.6484 3.78265 22.444 3.78265C22.3346 3.78265 22.2228 3.75278 22.123 3.69304C19.0605 1.85716 15.2371 1.76525 14.5 1.76525C13.7629 1.76525 9.93716 1.85716 6.87704 3.69304C6.59171 3.86537 6.21603 3.78035 6.04008 3.50463C5.86175 3.2266 5.94973 2.86586 6.23505 2.69353C8.01596 1.62739 9.98471 1.09891 11.5873 0.839265C11.4946 0.547454 11.4113 0.363636 11.4042 0.347552C11.2972 0.120077 11.0571 -0.0223818 10.8003 0.00289273C10.6362 0.0143818 6.80333 0.333765 4.34715 2.24318C3.06556 3.38974 0.5 10.0899 0.5 15.8825C0.5 15.9859 0.528533 16.0847 0.580843 16.1743C2.34986 19.1797 7.17901 19.9655 8.27989 20C8.28465 20 8.29178 20 8.29891 20C8.49389 20 8.67697 19.9104 8.7911 19.7587L9.90387 18.279C6.90081 17.5299 5.36719 16.257 5.27921 16.1812C5.02717 15.9675 5.0034 15.5953 5.2269 15.3517C5.44803 15.1081 5.83322 15.0852 6.08526 15.2989C6.12092 15.331 8.94565 17.6471 14.5 17.6471C20.0639 17.6471 22.8886 15.3218 22.9171 15.2989C23.1692 15.0875 23.552 15.1081 23.7755 15.354C23.9966 15.5976 23.9728 15.9675 23.7208 16.1812C23.6328 16.257 22.0992 17.5299 19.0961 18.279L20.2089 19.7587C20.323 19.9104 20.5061 20 20.7011 20C20.7082 20 20.7154 20 20.7201 20C21.821 19.9655 26.6501 19.1797 28.4192 16.1743C28.4715 16.0847 28.5 15.9859 28.5 15.8825C28.5 10.0899 25.9344 3.38974 24.6196 2.2179ZM10.5435 13.5296C9.36651 13.5296 8.41304 12.4772 8.41304 11.1767C8.41304 9.87622 9.36651 8.82386 10.5435 8.82386C11.7204 8.82386 12.6739 9.87622 12.6739 11.1767C12.6739 12.4772 11.7204 13.5296 10.5435 13.5296ZM18.4565 13.5296C17.2796 13.5296 16.3261 12.4772 16.3261 11.1767C16.3261 9.87622 17.2796 8.82386 18.4565 8.82386C19.6335 8.82386 20.587 9.87622 20.587 11.1767C20.587 12.4772 19.6335 13.5296 18.4565 13.5296Z" fill="white"/>
</svg>
