<svg width="18" height="22" viewBox="0 0 18 22" fill="none" xmlns="http://www.w3.org/2000/svg">
<path d="M9.4615 3.38881C9.59904 3.10281 9.67054 2.81115 9.70068 2.53103C9.84874 2.72232 9.94975 2.93443 9.99391 3.147L9.99387 3.14701L9.99563 3.15513C10.093 3.6049 10.0313 4.11535 9.9012 4.77292L9.90116 4.77291L9.89948 4.7818C9.88043 4.88289 9.8446 5.03551 9.79979 5.22637C9.6313 5.94411 9.33585 7.2027 9.32766 8.29572C9.32235 9.00385 9.42528 9.83917 9.88371 10.5214C10.3916 11.2773 11.2157 11.6746 12.2589 11.6746C12.7281 11.6746 13.1634 11.5497 13.5376 11.2975C13.9036 11.0509 14.1593 10.7179 14.3374 10.3763C14.6808 9.71769 14.7959 8.91138 14.8286 8.19569C14.8306 8.152 14.8323 8.10814 14.8337 8.06416C14.8574 8.11354 14.8811 8.16332 14.9045 8.2135C15.3931 9.28253 15.7484 10.4128 15.9571 11.5681L15.9571 11.5681L15.9581 11.5734C16.1197 12.4412 16.1471 13.3196 16.0112 14.1636L16.0112 14.1636L16.0102 14.1702C15.7679 15.7421 15.0796 17.2412 14.0163 18.3871L14.0154 18.388C13.2608 19.2034 12.3022 19.8251 11.2557 20.1618L11.253 20.1627C10.2426 20.491 9.14264 20.5764 8.05598 20.4495C6.94665 20.3192 5.87465 19.9147 4.98385 19.2691L4.98009 19.2664C3.84795 18.4538 2.97868 17.2635 2.46277 15.9272L2.46279 15.9272L2.46081 15.9221C1.92964 14.5682 1.76686 13.0718 2.01488 11.6495C2.03368 11.5427 2.05537 11.4365 2.07992 11.3311C2.08958 11.4365 2.10101 11.5421 2.1144 11.6474C2.20127 12.3308 2.38278 13.1107 2.78495 13.7458C3.21896 14.4312 3.92849 14.9606 4.93438 14.9606C5.37191 14.9606 5.82868 14.8457 6.19818 14.5164C6.55894 14.1948 6.71253 13.7788 6.77531 13.4235C6.89161 12.7656 6.75096 11.9757 6.61097 11.3228C6.54135 10.998 6.47059 10.7012 6.40194 10.4132C6.30914 10.0239 6.22019 9.65072 6.14303 9.24638C6.01287 8.56426 5.98389 8.08658 6.04846 7.79302C6.27872 6.74612 6.57615 6.02105 7.09764 5.51498L7.0977 5.51504L7.10705 5.50573C7.38007 5.23369 7.70687 5.01657 8.133 4.73347C8.16645 4.71125 8.20051 4.68862 8.23521 4.66553L8.23682 4.66445C8.57711 4.43698 9.14856 4.04488 9.4615 3.38881Z" stroke="white" stroke-width="2"/>
</svg>
