<svg width="17" height="22" viewBox="0 0 17 22" fill="none" xmlns="http://www.w3.org/2000/svg">
<path d="M7.90407 0.494385C8.47749 0.803574 9.0922 1.05817 9.5858 1.49489C10.0244 1.86785 10.3551 2.37613 10.473 2.94358C10.618 3.61334 10.5134 4.3042 10.3822 4.96708C10.1397 6.25336 8.68699 10.6746 11.7589 10.6746C14.0489 10.6746 13.2173 5.92657 13.0795 4.72211C13.4002 5.06616 13.7314 5.40058 14.0489 5.74785C14.5769 6.35659 14.9723 7.06672 15.3122 7.79382C15.8361 8.93929 16.2173 10.1508 16.4412 11.3903C16.621 12.356 16.6549 13.351 16.4985 14.3226C16.2283 16.0754 15.4595 17.7631 14.2493 19.0673C13.3823 20.004 12.2781 20.7224 11.062 21.1137C9.89866 21.4917 8.65181 21.5844 7.43937 21.4426C6.16958 21.2936 4.93374 20.8302 3.897 20.0788C2.58868 19.1398 1.60744 17.7833 1.02989 16.2873C0.433987 14.7685 0.249115 13.0863 0.529863 11.477C0.650511 10.7912 0.873916 10.1228 1.19916 9.50628C1.62854 8.6801 2.25701 7.98465 2.80887 7.2415C2.74969 7.7218 2.68914 8.20163 2.62996 8.68193C2.56295 9.21539 2.03272 13.9606 4.43438 13.9606C6.56216 13.9606 4.12429 9.61283 4.5718 7.57821C4.81456 6.47449 5.16507 5.51174 5.90122 4.79734C6.28151 4.41843 6.73658 4.12896 7.1811 3.83308C7.52561 3.60279 7.877 3.34085 8.05958 2.95689C8.26647 2.52797 8.24078 2.03161 8.15454 1.57517C8.08068 1.21277 7.98481 0.855411 7.90407 0.494385Z" fill="white"/>
</svg>
