<svg width="94" height="32" viewBox="0 0 94 32" fill="none" xmlns="http://www.w3.org/2000/svg">
<path d="M41.3805 31.831V28.1543H38.0078V31.831H34.9405V22.1393H38.0078V25.675H41.3805V22.1393H44.4479V31.831H41.3805Z" fill="white"/>
<path d="M46.6409 31.831V22.1393H49.7083V31.831H46.6409Z" fill="white"/>
<path d="M57.2542 22.1393C57.8464 22.1393 58.3738 22.2801 58.8364 22.5619C59.2991 22.8342 59.6599 23.2145 59.919 23.7029C60.1781 24.1818 60.3077 24.7218 60.3077 25.3229V25.506C60.3077 26.107 60.1781 26.6517 59.919 27.1401C59.6599 27.6284 59.2991 28.0134 58.8364 28.2952C58.3738 28.5675 57.8464 28.7037 57.2542 28.7037H54.9641V31.831H51.8967V22.1393H57.2542ZM54.9641 26.4357H56.2271C56.551 26.4357 56.7915 26.3512 56.9488 26.1822C57.1154 26.0131 57.1987 25.783 57.1987 25.4919V25.3792C57.1987 25.0787 57.1154 24.8486 56.9488 24.689C56.7915 24.5199 56.551 24.4354 56.2271 24.4354H54.9641V26.4357Z" fill="white"/>
<path d="M68.3533 31.831V28.1543H64.9806V31.831H61.9132V22.1393H64.9806V25.675H68.3533V22.1393H71.4206V31.831H68.3533Z" fill="white"/>
<path d="M78.2217 21.9702C79.8687 21.9702 81.141 22.3975 82.0385 23.2521C82.9361 24.1067 83.3848 25.351 83.3848 26.9851C83.3848 28.6192 82.9361 29.8635 82.0385 30.7181C81.141 31.5727 79.8687 32 78.2217 32C76.5747 32 75.3024 31.5774 74.4048 30.7322C73.5166 29.8776 73.0724 28.6286 73.0724 26.9851C73.0724 25.3417 73.5166 24.0973 74.4048 23.2521C75.3024 22.3975 76.5747 21.9702 78.2217 21.9702ZM78.2217 24.2945C77.5647 24.2945 77.0651 24.4964 76.7227 24.9003C76.3803 25.3041 76.2092 25.8488 76.2092 26.5343V27.4359C76.2092 28.1214 76.3803 28.6661 76.7227 29.07C77.0651 29.4738 77.5647 29.6757 78.2217 29.6757C78.8787 29.6757 79.3783 29.4738 79.7207 29.07C80.0723 28.6661 80.2481 28.1214 80.2481 27.4359V26.5343C80.2481 25.8488 80.0723 25.3041 79.7207 24.9003C79.3783 24.4964 78.8787 24.2945 78.2217 24.2945Z" fill="white"/>
<path d="M90.3941 22.1393C90.9863 22.1393 91.5137 22.2801 91.9763 22.5619C92.439 22.8342 92.7998 23.2145 93.0589 23.7029C93.318 24.1818 93.4475 24.7218 93.4475 25.3229V25.506C93.4475 26.107 93.318 26.6517 93.0589 27.1401C92.7998 27.6284 92.439 28.0134 91.9763 28.2952C91.5137 28.5675 90.9863 28.7037 90.3941 28.7037H88.104V31.831H85.0366V22.1393H90.3941ZM88.104 26.4357H89.367C89.6908 26.4357 89.9314 26.3512 90.0887 26.1822C90.2553 26.0131 90.3386 25.783 90.3386 25.4919V25.3792C90.3386 25.0787 90.2553 24.8486 90.0887 24.689C89.9314 24.5199 89.6908 24.4354 89.367 24.4354H88.104V26.4357Z" fill="white"/>
<path d="M49.1135 19.8208L40.7883 10.1985V19.8208H34.9405V0H40.5002L48.8255 9.76634V0H54.6733V19.8208H49.1135Z" fill="white"/>
<path d="M56.3443 0H72.361V4.75353H62.7107V8.15302H71.0071V12.7049H62.7107V19.8208H56.3443V0Z" fill="white"/>
<path d="M86.966 5.07043V19.8208H80.5996V5.07043H74.0892V0H93.4475V5.07043H86.966Z" fill="white"/>
<path d="M29.2091 0H0.552521V26.747C0.707924 26.6332 0.86429 26.5208 1.02048 26.4084C1.08007 26.3655 1.13965 26.3227 1.19915 26.2797C1.70124 25.8675 2.30779 25.617 2.90302 25.3711L2.91001 25.3682C3.38264 25.1781 3.86345 25.0099 4.34424 24.8416C4.63709 24.7391 4.92994 24.6366 5.22095 24.5292C5.34356 24.4828 5.46917 24.4438 5.59482 24.4047C5.8398 24.3284 6.08481 24.2522 6.30753 24.122C6.48777 24.0253 6.64915 23.9012 6.8107 23.777C6.91369 23.6977 7.01674 23.6185 7.1248 23.5462C7.22403 23.477 7.33635 23.4351 7.44884 23.3931C7.51767 23.3674 7.58658 23.3417 7.65261 23.3097C7.77236 23.2547 7.88354 23.1848 7.99475 23.1148C8.07664 23.0634 8.15855 23.0119 8.24388 22.9663C8.45336 22.8542 8.67368 22.7643 8.8945 22.6763C8.88316 21.6394 8.93886 20.604 9.03174 19.5716C9.03419 19.5246 9.03792 19.4773 9.04165 19.43C9.05448 19.2671 9.06739 19.1031 9.02865 18.9434C8.81865 18.2478 8.69741 17.5296 8.59628 16.8114C8.57389 16.8227 8.55124 16.8345 8.52836 16.8464C8.33046 16.9493 8.11518 17.0612 7.88996 16.9852C7.58346 16.8762 7.3869 16.5764 7.28163 16.2839C7.24353 16.003 7.18596 15.7254 7.12839 15.4478C7.06592 15.1468 7.00345 14.8458 6.96587 14.5406C6.92357 13.8769 6.90602 13.1658 7.24604 12.5679C7.36212 12.3638 7.55612 12.1376 7.81772 12.1721C7.98901 12.2123 8.13299 12.3102 8.27705 12.4082C8.36468 12.4678 8.45236 12.5274 8.54623 12.5741C8.57459 12.2343 8.58235 11.8914 8.56016 11.551C8.55585 11.4475 8.50125 11.361 8.44744 11.2758C8.43021 11.2485 8.41304 11.2213 8.39765 11.1937C8.17269 10.8277 8.12109 10.3778 8.18712 9.95985C8.19103 9.93118 8.19589 9.9021 8.20079 9.87279C8.2244 9.73176 8.24889 9.58559 8.17115 9.45705C8.00449 9.13573 7.85795 8.78613 7.87704 8.417C7.88684 8.08695 8.05247 7.76923 8.3125 7.56615C8.54778 7.37079 8.8429 7.27466 9.12977 7.18212C9.15035 7.12311 9.17076 7.06402 9.19117 7.00493C9.30066 6.68768 9.41023 6.37025 9.54768 6.06342C9.90111 5.26706 10.3794 4.52417 10.9572 3.87125C11.3241 3.51498 11.7952 3.23376 12.3126 3.17875C13.0489 3.06102 13.7877 2.95459 14.5307 2.8893C15.3216 2.86617 16.1136 2.86565 16.9051 2.86565C17.4522 3.01168 17.9445 3.30051 18.4307 3.58565C18.4768 3.61272 18.5229 3.63976 18.569 3.66663C19.5447 4.24861 20.5146 4.84034 21.4681 5.45779C21.7988 5.68966 22.1182 5.94826 22.3684 6.267C22.5242 6.48755 22.6512 6.7297 22.7394 6.98469C22.7482 7.02472 22.7572 7.06477 22.7661 7.10486C22.8363 7.41802 22.9071 7.73354 22.8906 8.05713L22.8872 8.23649C22.8714 9.0981 22.8555 9.96353 22.7213 10.8164C22.7863 10.8739 22.8529 10.9304 22.9198 10.9871C23.1856 11.2125 23.4543 11.4405 23.6279 11.7448C23.7904 12.0949 23.7759 12.5458 23.5381 12.8594C23.3833 13.0851 23.1548 13.2465 22.9252 13.3884C22.843 13.4404 22.754 13.4808 22.6651 13.5211C22.5252 13.5846 22.3856 13.6479 22.273 13.756L22.2348 13.7912C21.9839 14.0223 21.7298 14.2564 21.5285 14.5334C21.7266 14.6583 21.8577 14.867 21.8902 15.0979C21.9407 15.4531 21.9603 15.8361 21.8019 16.1687C21.5347 16.78 21.2308 17.3743 20.9166 17.9625C20.8737 18.0367 20.853 18.1188 20.8323 18.2008C20.8101 18.2887 20.788 18.3765 20.7386 18.4545C20.6529 18.6025 20.5513 18.7485 20.4068 18.8457C20.288 18.9248 20.1443 18.9367 20.0048 18.9482C19.98 18.9503 19.9554 18.9523 19.9311 18.9547C19.6391 19.6544 19.2733 20.3207 18.875 20.9659C18.8678 20.9798 18.8593 20.9934 18.8508 21.0072C18.8247 21.0491 18.7981 21.0919 18.8074 21.1438C18.8177 21.4769 18.8249 21.8106 18.8445 22.1437C18.8466 22.2697 18.9028 22.3967 19.02 22.4568C19.3863 22.6712 19.7433 22.9015 20.0978 23.1349C20.3336 23.2965 20.6115 23.3592 20.887 23.4213C20.9718 23.4404 21.0564 23.4595 21.1395 23.4814C21.1978 23.4969 21.2569 23.5114 21.3162 23.526C21.5982 23.5953 21.8848 23.6657 22.1192 23.8429C22.4768 24.102 22.824 24.3745 23.1707 24.6474C23.5368 24.9363 23.9525 25.1467 24.3677 25.357C24.5288 25.4386 24.69 25.5201 24.8481 25.6063C25.6865 26.0263 26.4878 26.5152 27.2612 27.0442C27.336 27.0961 27.4118 27.1472 27.4877 27.1982C27.7703 27.3886 28.054 27.5797 28.2977 27.8185C28.5879 28.1299 28.8977 28.4219 29.2091 28.7121V0Z" fill="#ED1C25"/>
</svg>
