<svg width="64" height="64" viewBox="0 0 64 64" fill="none" xmlns="http://www.w3.org/2000/svg">
<path d="M51.3364 3.2499L37.9622 23.1112C37.7455 23.3979 37.6453 23.756 37.6818 24.1136C37.7183 24.4712 37.8887 24.8017 38.1588 25.0387C38.4289 25.2756 38.7787 25.4015 39.1377 25.3908C39.4968 25.3802 39.8385 25.2339 40.0942 24.9814L53.2552 13.6037C53.331 13.534 53.4257 13.4882 53.5273 13.4719C53.629 13.4556 53.7332 13.4695 53.827 13.5119C53.9209 13.5543 54.0002 13.6233 54.0552 13.7104C54.1102 13.7975 54.1384 13.8989 54.1364 14.0019V49.7636C54.1353 49.8722 54.1011 49.9778 54.0384 50.0664C53.9757 50.1551 53.8875 50.2224 53.7855 50.2595C53.6836 50.2966 53.5727 50.3017 53.4678 50.2741C53.3628 50.2465 53.2688 50.1874 53.1983 50.1049L13.4026 2.46057C12.7673 1.69569 11.9725 1.07911 11.0739 0.654084C10.1753 0.229054 9.19467 0.00585531 8.20076 0.000133484H6.81501C5.00756 0.000133484 3.27413 0.718618 1.99607 1.99753C0.718008 3.27644 0 5.01102 0 6.81967V57.1805C0 58.9891 0.718008 60.7237 1.99607 62.0026C3.27413 63.2815 5.00756 64 6.81501 64C7.97962 63.9999 9.12475 63.7011 10.1412 63.1322C11.1575 62.5632 12.0113 61.7432 12.6209 60.7502L25.9951 40.8889C26.2118 40.6023 26.312 40.2441 26.2756 39.8865C26.2391 39.5289 26.0687 39.1984 25.7986 38.9615C25.5285 38.7245 25.1787 38.5987 24.8196 38.6093C24.4606 38.6199 24.1189 38.7662 23.8632 39.0187L10.7022 50.3965C10.6263 50.4661 10.5317 50.5119 10.43 50.5282C10.3284 50.5445 10.2242 50.5306 10.1303 50.4882C10.0365 50.4458 9.95718 50.3768 9.90219 50.2897C9.8472 50.2026 9.81898 50.1012 9.82101 49.9982V14.2721C9.82208 14.1635 9.85624 14.0579 9.91893 13.9692C9.98162 13.8806 10.0698 13.8132 10.1718 13.7761C10.2738 13.739 10.3847 13.734 10.4896 13.7616C10.5945 13.7892 10.6885 13.8482 10.759 13.9308L50.5547 61.5751C51.1949 62.3331 51.9927 62.9422 52.8923 63.3598C53.792 63.7774 54.772 63.9934 55.7637 63.9929H57.185C58.08 63.9929 58.9661 63.8165 59.793 63.4738C60.6198 63.1311 61.3711 62.6287 62.0039 61.9955C62.6368 61.3622 63.1388 60.6105 63.4812 59.7831C63.8237 58.9557 64 58.0689 64 57.1733V6.81967C64 5.92052 63.8223 5.03023 63.4772 4.20006C63.132 3.36988 62.6262 2.6162 61.9889 1.98238C61.3515 1.34857 60.5952 0.847138 59.7634 0.506944C58.9317 0.166749 58.0409 -0.0054921 57.1424 0.000133484C55.9778 0.000273294 54.8326 0.299056 53.8162 0.86797C52.7998 1.43688 51.9461 2.25695 51.3364 3.2499Z" fill="white"/>
</svg>
